#!OML:ASF E:\id_vita\Project 1\Capture day 1\Session 1\Male1.ASF
:FULLY-SPECIFIED
:DEGREES
1328
root -6.78258 15.9421 -2.10047 713.335 94.2493 708.566
lowerback -4.0102 -5.38803 -4.36721
upperback 1.08218 -7.0297 1.99205
thorax 4.14177 -3.62902 3.92247
lowerneck -5.72555 1.17709 5.20696
upperneck 13.2235 1.12399 0.247515
head 4.94821 0.871798 -0.705515
rclavicle 6.81086e-014 -1.19271e-014
rhumerus -40.7046 -35.1831 -63.6592
rradius 11.5419
rwrist 31.0918
rhand -20.1829 36.1253
rfingers 7.12502
rthumb 6.16326 6.23496
lclavicle 6.81086e-014 -1.19271e-014
lhumerus -11.7394 23.1216 87.8113
lradius 14.3694
lwrist -16.1351
lhand -12.8856 46.448
lfingers 7.12502
lthumb 13.2035 76.0099
rfemur -28.8315 1.58227 22.0634
rtibia 31.7509
rfoot -8.7359 -5.45034
rtoes 9.26904
lfemur 11.9095 0.253946 -21.8375
ltibia 25.5202
lfoot -6.8627 -14.6892
ltoes 6.8584
1329
root -6.63375 15.9674 -2.09083 719.443 94.3304 714.749
lowerback -3.88837 -5.26653 -4.01467
upperback 1.23111 -6.89596 2.19728
thorax 4.1976 -3.56054 3.95794
lowerneck -6.94865 1.07243 5.02522
upperneck 13.9982 0.906806 0.319326
head 5.38955 0.777228 -0.659911
rclavicle 1.66731e-014 1.35174e-014
rhumerus -39.1161 -33.9517 -65.3554
rradius 11.6725
rwrist 29.7331
rhand -20.2795 35.7514
rfingers 7.12502
rthumb 6.06997 5.85838
lclavicle 1.66731e-014 1.35174e-014
lhumerus -11.9516 24.8239 87.7964
lradius 13.4016
lwrist -18.0311
lhand -12.4395 46.5874
lfingers 7.12502
lthumb 13.6334 76.1209
rfemur -27.9304 1.4791 22.6679
rtibia 31.3341
rfoot -8.8787 -5.46807
rtoes 8.25974
lfemur 10.5587 0.247714 -21.0827
ltibia 28.4485
lfoot -4.91801 -16.0965
ltoes 11.0761
1330
root -6.49716 15.9973 -2.07417 724.212 94.7406 719.432
lowerback -3.68964 -5.32833 -4.09842
upperback 0.840095 -6.99151 2.54227
thorax 3.74328 -3.59987 4.39162
lowerneck -6.11101 0.938737 5.04043
upperneck 13.9997 0.822718 0.062332
head 5.2452 0.723952 -0.751653
rclavicle -6.0853e-014 1.47101e-014
rhumerus -38.4726 -31.9827 -66.4741
rradius 11.9177
rwrist 28.1964
rhand -19.9469 35.794
rfingers 7.12502
rthumb 6.39109 5.91038
lclavicle -6.0853e-014 1.47101e-014
lhumerus -13.4051 26.7229 87.2878
lradius 12.6617
lwrist -20.0001
lhand -12.1076 46.6226
lfingers 7.12502
lthumb 13.9533 76.1344
rfemur -27.1837 1.37086 23.1606
rtibia 30.8872
rfoot -9.07317 -5.67495
rtoes 7.82807
lfemur 8.94005 0.0532716 -20.3623
ltibia 31.2077
lfoot -2.99301 -17.5463
ltoes 15.7933
1331
root -6.33744 16.0216 -2.07215 727.438 94.6082 723.069
lowerback -4.51523 -5.06244 -3.32767
upperback 1.43734 -6.63866 2.09902
thorax 4.64629 -3.42049 3.43646
lowerneck -5.70566 0.793598 5.42765
upperneck 13.5902 0.577073 0.348463
head 5.04594 0.634649 -0.742614
rclavicle -1.08139e-013 3.81667e-014
rhumerus -37.5787 -32.0998 -68.0542
rradius 12.1874
rwrist 27.7709
rhand -19.7701 35.9905
rfingers 7.12502
rthumb 6.56178 6.11212
lclavicle -1.08139e-013 3.81667e-014
lhumerus -13.5873 28.2455 86.3596
lradius 11.6526
lwrist -22.3954
lhand -12.1838 46.3824
lfingers 7.12502
lthumb 13.8798 75.8992
rfemur -25.8238 1.44744 23.6118
rtibia 30.445
rfoot -9.44877 -5.68396
rtoes 6.96548
lfemur 7.98986 0.246577 -19.8891
ltibia 33.9788
lfoot -1.07191 -18.821
ltoes 17.3916
1332
root -6.17578 16.0425 -2.07691 728.814 94.636 725.026
lowerback -3.37352 -4.99797 -3.61897
upperback 0.963951 -6.58 2.55613
thorax 3.59406 -3.38371 4.20248
lowerneck -5.49442 0.666321 4.85666
upperneck 14.3961 0.515631 0.147525
head 5.254 0.585974 -0.715727
rclavicle -1.69911e-013 3.93594e-014
rhumerus -37.2558 -29.1162 -68.9077
rradius 12.6746
rwrist 25.5317
rhand -19.4151 36.2005
rfingers 7.12502
rthumb 6.90449 6.33313
lclavicle -1.69911e-013 3.93594e-014
lhumerus -15.7048 31.6515 85.497
lradius 10.8762
lwrist -25.6388
lhand -12.3679 46.1242
lfingers 7.12502
lthumb 13.7025 75.6531
rfemur -24.278 1.33427 23.8917
rtibia 29.9902
rfoot -9.73783 -5.81313
rtoes 6.09548
lfemur 7.34558 0.245459 -19.5826
ltibia 36.6178
lfoot -0.394607 -20.3459
ltoes 16.0505
1333
root -6.07011 16.0714 -2.04323 729.937 95.2062 725.771
lowerback -3.86477 -4.79938 -3.26462
upperback 1.23466 -6.30806 2.1641
thorax 4.03798 -3.24518 3.56963
lowerneck -6.15253 0.359234 5.30209
upperneck 14.4373 -0.0454022 0.502126
head 5.36898 0.360812 -0.711971
rclavicle 1.90336e-014 -2.14687e-014
rhumerus -36.3418 -30.273 -69.955
rradius 12.7286
rwrist 25.6352
rhand -19.4218 36.4504
rfingers 7.12502
rthumb 6.89799 6.58277
lclavicle 1.90336e-014 -2.14687e-014
lhumerus -15.5808 33.0085 84.6132
lradius 10.0294
lwrist -28.3115
lhand -12.1936 46.2659
lfingers 7.12502
lthumb 13.8704 75.7834
rfemur -23.9685 1.39609 24.1184
rtibia 29.4803
rfoot -9.49512 -6.39431
rtoes 6.16743
lfemur 5.30641 -0.0184867 -19.0383
ltibia 39.2573
lfoot 1.33596 -21.4333
ltoes 19.2576
1334
root -5.92663 16.095 -2.03838 732.357 94.8434 728.394
lowerback -3.79122 -4.63293 -3.29974
upperback 1.08975 -6.0904 2.34183
thorax 3.8496 -3.13502 3.80572
lowerneck -5.39283 0.309778 5.05394
upperneck 14.385 -0.0155188 0.435133
head 5.22226 0.359105 -0.690766
rclavicle 1.69712e-014 3.18055e-015
rhumerus -35.6289 -28.2775 -71.0907
rradius 12.9918
rwrist 24.169
rhand -19.676 36.0744
rfingers 7.12502
rthumb 6.65257 6.19893
lclavicle 1.69712e-014 3.18055e-015
lhumerus -16.7445 33.2294 84.3259
lradius 9.54156
lwrist -28.5681
lhand -11.8946 47.0856
lfingers 7.12502
lthumb 14.1586 76.5831
rfemur -22.8977 1.75075 24.3875
rtibia 28.8854
rfoot -9.56643 -6.40226
rtoes 5.9284
lfemur 4.15474 0.368436 -18.7321
ltibia 41.8295
lfoot 1.87606 -21.7346
ltoes 19.8491
